<svg width="992" height="530" viewBox="0 0 992 530" fill="none" xmlns="http://www.w3.org/2000/svg">
<path fill-rule="evenodd" clip-rule="evenodd" d="M979.118 265C979.118 404.741 865.836 518.023 726.095 518.023C609.819 518.023 511.861 439.589 482.243 332.743C478.025 332.165 473.713 331.517 469.328 330.795C498.587 445.322 602.452 530 726.095 530C872.451 530 991.095 411.355 991.095 265C991.095 118.645 872.451 3.05176e-05 726.095 3.05176e-05C597.593 3.05176e-05 490.453 91.465 466.227 212.844C470.115 213.396 474.077 214.015 478.072 214.704C501.396 99.0589 603.576 11.9774 726.095 11.9774C865.836 11.9774 979.118 125.26 979.118 265Z" fill="black"/>
<path d="M17.776 320.276C14.614 320.276 11.6915 319.509 9.00853 317.976C6.42141 316.443 4.3613 314.383 2.8282 311.796C1.29509 309.113 0.528534 306.19 0.528534 303.028V234.038C0.528534 230.876 1.29509 228.002 2.8282 225.415C4.3613 222.732 6.42141 220.624 9.00853 219.091C11.6915 217.558 14.614 216.791 17.776 216.791H103.726V228.433H17.776C16.2429 228.433 14.9014 229.008 13.7516 230.158C12.6976 231.212 12.1706 232.505 12.1706 234.038V303.028C12.1706 304.561 12.6976 305.903 13.7516 307.053C14.9014 308.107 16.2429 308.634 17.776 308.634H103.726V320.276H17.776Z" fill="black"/>
<path d="M135.384 320.276C132.222 320.276 129.3 319.509 126.617 317.976C124.03 316.347 121.922 314.239 120.293 311.652C118.76 308.969 117.993 306.047 117.993 302.885V254.304C117.993 251.142 118.76 248.268 120.293 245.681C121.922 242.998 124.03 240.89 126.617 239.356C129.3 237.728 132.222 236.913 135.384 236.913H185.402C188.66 236.913 191.582 237.728 194.169 239.356C196.852 240.89 198.96 242.998 200.493 245.681C202.122 248.268 202.937 251.142 202.937 254.304V302.885C202.937 306.047 202.122 308.969 200.493 311.652C198.96 314.239 196.852 316.347 194.169 317.976C191.582 319.509 188.66 320.276 185.402 320.276H135.384ZM135.384 308.49H185.402C186.935 308.49 188.229 307.963 189.283 306.909C190.432 305.759 191.007 304.418 191.007 302.885V254.304C191.007 252.771 190.432 251.478 189.283 250.424C188.229 249.274 186.935 248.699 185.402 248.699H135.384C133.851 248.699 132.51 249.274 131.36 250.424C130.306 251.478 129.779 252.771 129.779 254.304V302.885C129.779 304.418 130.306 305.759 131.36 306.909C132.51 307.963 133.851 308.49 135.384 308.49Z" fill="black"/>
<path d="M217.652 320.276V236.913H229.438V320.276H217.652ZM217.652 221.39V209.605H229.438V221.39H217.652Z" fill="black"/>
<path d="M245.731 320.276V236.913H313.284C316.446 236.913 319.32 237.728 321.907 239.356C324.59 240.89 326.698 242.998 328.231 245.681C329.86 248.268 330.675 251.142 330.675 254.304V320.276H318.889V254.304C318.889 252.771 318.314 251.478 317.164 250.424C316.11 249.274 314.817 248.699 313.284 248.699H263.266C261.733 248.699 260.391 249.274 259.241 250.424C258.092 251.478 257.517 252.771 257.517 254.304V320.276H245.731Z" fill="black"/>
<path d="M363.343 320.276C360.181 320.276 357.258 319.509 354.575 317.976C351.988 316.443 349.928 314.383 348.395 311.796C346.862 309.113 346.095 306.19 346.095 303.028V234.038C346.095 230.876 346.862 228.002 348.395 225.415C349.928 222.732 351.988 220.624 354.575 219.091C357.258 217.558 360.181 216.791 363.343 216.791H449.293V228.433H363.343C361.81 228.433 360.468 229.008 359.318 230.158C358.264 231.212 357.737 232.505 357.737 234.038V303.028C357.737 304.561 358.264 305.903 359.318 307.053C360.468 308.107 361.81 308.634 363.343 308.634H449.293V320.276H363.343Z" fill="black"/>
<path d="M480.951 320.276C477.789 320.276 474.866 319.509 472.184 317.976C469.596 316.347 467.488 314.239 465.859 311.652C464.326 308.969 463.56 306.047 463.56 302.885V254.304C463.56 251.142 464.326 248.268 465.859 245.681C467.488 242.998 469.596 240.89 472.184 239.356C474.866 237.728 477.789 236.913 480.951 236.913H530.969C534.226 236.913 537.149 237.728 539.736 239.356C542.419 240.89 544.527 242.998 546.06 245.681C547.689 248.268 548.504 251.142 548.504 254.304V302.885C548.504 306.047 547.689 308.969 546.06 311.652C544.527 314.239 542.419 316.347 539.736 317.976C537.149 319.509 534.226 320.276 530.969 320.276H480.951ZM480.951 308.49H530.969C532.502 308.49 533.795 307.963 534.849 306.909C535.999 305.759 536.574 304.418 536.574 302.885V254.304C536.574 252.771 535.999 251.478 534.849 250.424C533.795 249.274 532.502 248.699 530.969 248.699H480.951C479.418 248.699 478.076 249.274 476.927 250.424C475.873 251.478 475.346 252.771 475.346 254.304V302.885C475.346 304.418 475.873 305.759 476.927 306.909C478.076 307.963 479.418 308.49 480.951 308.49Z" fill="black"/>
<path d="M561.401 320.276V236.913H628.953C632.116 236.913 634.99 237.728 637.577 239.356C640.26 240.89 642.368 242.998 643.901 245.681C645.53 248.268 646.345 251.142 646.345 254.304V320.276H634.559V254.304C634.559 252.771 633.984 251.478 632.834 250.424C631.78 249.274 630.487 248.699 628.953 248.699H578.936C577.403 248.699 576.061 249.274 574.911 250.424C573.762 251.478 573.187 252.771 573.187 254.304V320.276H561.401Z" fill="black"/>
<path d="M678.725 320.276C675.467 320.276 672.497 319.509 669.814 317.976C667.227 316.347 665.167 314.239 663.634 311.652C662.1 308.969 661.334 306.047 661.334 302.885V209.605H673.12V236.913H709.196V248.699H673.12V302.885C673.12 304.418 673.647 305.759 674.701 306.909C675.851 307.963 677.192 308.49 678.725 308.49H709.196V320.276H678.725Z" fill="black"/>
<path d="M720.142 320.276V254.304C720.142 251.142 720.908 248.268 722.441 245.681C724.07 242.998 726.178 240.89 728.765 239.356C731.448 237.728 734.371 236.913 737.533 236.913H784.388V248.699H737.533C736 248.699 734.658 249.274 733.508 250.424C732.454 251.478 731.927 252.771 731.927 254.304V320.276H720.142Z" fill="black"/>
<path d="M810.236 320.276C807.074 320.276 804.151 319.509 801.468 317.976C798.881 316.347 796.773 314.239 795.144 311.652C793.611 308.969 792.845 306.047 792.845 302.885V254.304C792.845 251.142 793.611 248.268 795.144 245.681C796.773 242.998 798.881 240.89 801.468 239.356C804.151 237.728 807.074 236.913 810.236 236.913H860.254C863.511 236.913 866.434 237.728 869.021 239.356C871.704 240.89 873.812 242.998 875.345 245.681C876.974 248.268 877.788 251.142 877.788 254.304V302.885C877.788 306.047 876.974 308.969 875.345 311.652C873.812 314.239 871.704 316.347 869.021 317.976C866.434 319.509 863.511 320.276 860.254 320.276H810.236ZM810.236 308.49H860.254C861.787 308.49 863.08 307.963 864.134 306.909C865.284 305.759 865.859 304.418 865.859 302.885V254.304C865.859 252.771 865.284 251.478 864.134 250.424C863.08 249.274 861.787 248.699 860.254 248.699H810.236C808.703 248.699 807.361 249.274 806.212 250.424C805.158 251.478 804.631 252.771 804.631 254.304V302.885C804.631 304.418 805.158 305.759 806.212 306.909C807.361 307.963 808.703 308.49 810.236 308.49Z" fill="black"/>
<path d="M907.088 320.276C903.926 320.276 901.003 319.509 898.32 317.976C895.733 316.347 893.625 314.239 891.996 311.652C890.463 308.969 889.697 306.047 889.697 302.885V209.605H901.482V302.885C901.482 304.418 902.009 305.759 903.063 306.909C904.213 307.963 905.555 308.49 907.088 308.49H921.173V320.276H907.088Z" fill="black"/>
</svg>
